<svg xmlns="http://www.w3.org/2000/svg" viewBox="0 0 1024 1024">
  <path fill="#ffffff" d="M512 0C229.2 0 0 229.2 0 512c0 226.1 146.2 417.4 349.4 484.9 25.6 4.7 34.9-11.1 34.9-24.6 0-12.2-.4-53.2-.7-96.6-142.1 30.9-172.2-64.2-172.2-64.2-23.3-59.2-56.7-74.9-56.7-74.9-46.4-31.8 3.5-31.1 3.5-31.1 51.2 3.6 78.1 52.5 78.1 52.5 45.5 77.9 119.3 55.5 148.1 42.3 4.6-33 17.8-55.5 32.4-68.3-113.3-12.9-232.3-56.7-232.3-253.1 0-55.9 20-101.5 52.9-137.2-5.3-12.9-22.8-64.8 4.9-135.4 0 0 42.8-13.8 140.1 52.3a482.78 482.78 0 01256.6 0c97.3-66.1 140.1-52.3 140.1-52.3 27.8 70.6 10.3 122.5 5.1 135.4 32.9 35.7 52.8 81.3 52.8 137.2 0 196.9-119.2 240-232.8 252.7 18.3 15.8 34.6 46.9 34.6 94.6 0 68.4-.6 123.4-.6 140.1 0 13.6 9.2 29.6 35.1 24.6C877.9 929.3 1024 738 1024 512 1024 229.2 794.8 0 512 0z"/>
</svg>
